<svg xmlns:xlink="http://www.w3.org/1999/xlink" xmlns="http://www.w3.org/2000/svg" width="24" height="24" fill="none" viewBox="0 0 24 24"><path fill="#808080" fill-rule="evenodd" d="M17 14a5 5 0 0 1-10 0c0-1.102.345-2 1.064-3.03.138-.198.534-.71.915-1.202.33-.427.65-.84.782-1.023.775-1.077 1.338-2.123 1.765-3.403a.5.5 0 0 1 .948 0c.427 1.28.99 2.326 1.765 3.403.131.183.451.596.782 1.023.38.493.776 1.004.915 1.202C16.656 12 17 12.898 17 14Zm-2.709-3.54c-.587-.76-.738-.957-.863-1.13A13.702 13.702 0 0 1 12 6.882c-.377.844-.84 1.632-1.428 2.448-.125.173-.276.37-.863 1.13l-.004.004c-.493.638-.725.941-.821 1.079C8.252 12.448 8 13.15 8 14a4 4 0 0 0 8 0c0-.851-.252-1.553-.884-2.458a40.582 40.582 0 0 0-.821-1.079l-.004-.005Z" clip-rule="evenodd"></path></svg>